<svg width="16" height="16" viewBox="0 0 16 16" fill="none" xmlns="http://www.w3.org/2000/svg">
<g clip-path="url(#clip0_15_56)">
<path d="M12.0003 10.2503C13.519 10.2504 14.7503 11.4816 14.7503 13.0003C14.7502 14.5188 13.5189 15.7501 12.0003 15.7503C10.4816 15.7503 9.25044 14.5189 9.25031 13.0003C9.25031 11.4815 10.4815 10.2503 12.0003 10.2503ZM12.0003 11.7503C11.3099 11.7503 10.7503 12.3099 10.7503 13.0003C10.7504 13.6905 11.31 14.2503 12.0003 14.2503C12.6904 14.2501 13.2502 13.6904 13.2503 13.0003C13.2503 12.31 12.6905 11.7504 12.0003 11.7503ZM7.12042 0.600845C7.71822 0.255741 8.48223 0.460174 8.82745 1.05788L9.84698 2.82448L8.79816 4.0071L7.65363 2.02467L2.02472 5.27467L5.27472 10.9036L8.9007 8.80885C9.01575 8.85905 9.13639 8.90282 9.263 8.93678L10.9144 9.37819L5.80792 12.3274C5.21024 12.6725 4.44622 12.4678 4.10089 11.8704L0.600891 5.80788C0.255753 5.21008 0.460218 4.44608 1.05792 4.10085L7.12042 0.600845ZM12.2259 2.02663C12.8668 1.30426 14.0234 1.55869 14.3353 2.42506L14.386 2.60573L15.3675 7.40553C15.5536 8.31563 14.7179 9.10354 13.8206 8.86354L9.58722 7.72975C8.69014 7.48907 8.35997 6.38879 8.97589 5.69362L12.2259 2.02663ZM10.3655 6.38503L13.8177 7.30983L13.0169 3.39479L10.3655 6.38503Z" fill="#CD3838"/>
</g>
<defs>
<clipPath id="clip0_15_56">
<rect width="16" height="16" fill="white"/>
</clipPath>
</defs>
</svg>
